<svg xmlns="http://www.w3.org/2000/svg" width="25" height="20" viewBox="0 0 25 20" fill="none"><path d="M24.5212 0.0112081C23.4538 0.764094 22.272 1.33993 21.0213 1.71654C20.35 0.944696 19.4579 0.39763 18.4656 0.149336C17.4733 -0.0989584 16.4286 -0.0365016 15.4729 0.328259C14.5173 0.69302 13.6967 1.34249 13.1221 2.18882C12.5476 3.03515 12.2469 4.03751 12.2606 5.06034V6.17494C10.3018 6.22573 8.36091 5.79131 6.61069 4.91037C4.86048 4.02942 3.35529 2.72931 2.2292 1.12581C2.2292 1.12581 1 3.5 2.2292 6.17494C1.84168 7.94199 2.2292 10 4 11C3.5 12.5 5.13673 14.4309 7.80219 15.6156C5.5067 17.1738 2.77218 17.955 0 17.8448C10.0314 23.4178 22.292 17.8448 22.292 5.0269C22.2909 4.71643 22.2611 4.40673 22.2028 4.10178C23.3404 2.97993 24.1431 1.56352 24.5212 0.0112081Z" fill="#989898"/></svg>